<?xml version="1.0" encoding="UTF-8"?>
<svg xmlns="http://www.w3.org/2000/svg" width="400" height="240" viewBox="0 0 400 240">
  <rect width="100%" height="100%" fill="none" />
  <!-- Left: Laptop -->
  <rect x="20" y="60" width="100" height="70" rx="8" fill="#f5f7fa" stroke="#2d3e50" stroke-width="2" />
  <!-- Right: Server -->
  <rect x="280" y="40" width="90" height="120" rx="8" fill="#f0f4f8" stroke="#2d3e50" stroke-width="2" />
  <circle cx="310" cy="70" r="6" fill="#2d3e50" />
  <circle cx="340" cy="70" r="6" fill="#2d3e50" />
  <!-- Middle: Attacker -->
  <g transform="translate(160,50)">
    <path d="M40 0c-10 0-20 10-20 20v20c0 10 10 20 20 20s20-10 20-20V20C180 10 170 0 160 0z" fill="#f5f7fa" />
    <rect x="0" y="60" width="80" height="40" rx="6" fill="#2d3e50" />
    <rect x="12" y="68" width="56" height="24" rx="3" fill="#d64545" />
    <text x="40" y="86" font-family="Arial" font-size="14" text-anchor="middle" fill="#fff">H</text>
  </g>
  <!-- Broken lines -->
  <line x1="120" y1="95" x2="160" y2="95" stroke="#d64545" stroke-width="3" stroke-dasharray="6"/>
  <line x1="240" y1="95" x2="280" y2="95" stroke="#d64545" stroke-width="3" stroke-dasharray="6"/>
  <!-- Green secure bypass -->
  <path d="M40 160 Q200 220 360 160" fill="none" stroke="#2db26a" stroke-width="8" marker-end="url(#arrow)" marker-start="url(#arrow)" stroke-linecap="round"/>
  <defs>
    <marker id="arrow" markerWidth="10" markerHeight="10" refX="6" refY="5" orient="auto">
      <path d="M0 0 L10 5 L0 10 z" fill="#2db26a" />
    </marker>
  </defs>
  <g transform="translate(170,140)">
    <rect x="0" y="0" width="24" height="28" rx="4" fill="#eaf6ee" stroke="#2db26a" />
    <rect x="6" y="8" width="12" height="12" rx="2" fill="#2db26a" />
  </g>
  <text x="200" y="200" font-family="Arial" font-size="16" fill="#2d3e50">MITM та підміни</text>
</svg>
